<?xml version="1.0" encoding="UTF-8" standalone="no"?>
<!-- Created with Inkscape (http://www.inkscape.org/) -->
<svg
   xmlns:dc="http://purl.org/dc/elements/1.1/"
   xmlns:cc="http://web.resource.org/cc/"
   xmlns:rdf="http://www.w3.org/1999/02/22-rdf-syntax-ns#"
   xmlns:svg="http://www.w3.org/2000/svg"
   xmlns="http://www.w3.org/2000/svg"
   xmlns:sodipodi="http://inkscape.sourceforge.net/DTD/sodipodi-0.dtd"
   xmlns:inkscape="http://www.inkscape.org/namespaces/inkscape"
   width="25.6pt"
   height="25.6pt"
   id="svg2"
   sodipodi:version="0.32"
   inkscape:version="0.43"
   version="1.0"
   sodipodi:docbase="/home/steve/Applications/CVS/PhamDB"
   sodipodi:docname="map.svg">
  <defs
     id="defs4" />
  <sodipodi:namedview
     id="base"
     pagecolor="#ffffff"
     bordercolor="#666666"
     borderopacity="1.0"
     inkscape:pageopacity="0.0"
     inkscape:pageshadow="2"
     inkscape:zoom="16"
     inkscape:cx="17.928931"
     inkscape:cy="19.95924"
     inkscape:document-units="px"
     inkscape:current-layer="layer1"
     inkscape:window-width="1680"
     inkscape:window-height="975"
     inkscape:window-x="0"
     inkscape:window-y="25" />
  <metadata
     id="metadata7">
    <rdf:RDF>
      <cc:Work
         rdf:about="">
        <dc:format>image/svg+xml</dc:format>
        <dc:type
           rdf:resource="http://purl.org/dc/dcmitype/StillImage" />
      </cc:Work>
    </rdf:RDF>
  </metadata>
  <g
     inkscape:label="Layer 1"
     inkscape:groupmode="layer"
     id="layer1">
    <path
       style="fill:#006b00;fill-opacity:1;fill-rule:nonzero;stroke:none;stroke-width:1px;stroke-linecap:butt;stroke-linejoin:miter;stroke-opacity:1"
       d="M 14.25,3.71875 C 13.363969,3.8116783 12.276406,4.5609331 11.40625,4.4375 C 9.6018135,5.4967303 7.5715064,3.1278838 5.875,4.4375 C 4.8385622,5.5363561 5.065863,7.4561851 5.875,8.34375 C 5.9185037,8.3899181 5.9846225,8.4599039 6.03125,8.5 C 6.0862327,8.5455365 6.1598663,8.5886522 6.21875,8.625 C 6.7444452,8.5817248 7.0599887,8.4520309 7.34375,8.4375 C 7.3673205,8.4367751 7.4140014,8.4366306 7.4375,8.4375 C 7.4610269,8.4389461 7.5074813,8.4654375 7.53125,8.46875 C 7.5949877,8.4793633 7.6809164,8.5042204 7.75,8.53125 C 7.837582,8.5679423 7.9578487,8.6175983 8.0625,8.6875 C 8.0676253,8.6911672 8.0887301,8.7149132 8.09375,8.71875 C 8.1035829,8.7267576 8.1155696,8.7413394 8.125,8.75 C 8.1296174,8.7544898 8.1517284,8.7766033 8.15625,8.78125 C 8.1606776,8.7860511 8.1831645,8.8075471 8.1875,8.8125 C 8.6375108,9.3533371 8.4480882,10.614934 9.0285056,11.311978 C 9.0732176,11.363613 9.9747306,11.854546 10.047193,11.799895 C 10.098878,11.760916 8.9537753,10.894611 8.9376349,10.82166 C 8.8719029,10.524565 10.036376,11.836002 12.40625,13.0625 C 13.270306,13.509681 13.732875,14.23793 13.96875,14.65625 C 15.096844,15.576898 16.242224,16.483579 17.8125,16.90625 C 17.4175,17.328601 16.909424,17.968723 16.78125,18.4375 C 16.777614,18.452105 16.752816,18.485712 16.75,18.5 C 16.747607,18.514121 16.751523,18.548728 16.75,18.5625 C 16.748925,18.576089 16.750156,18.611793 16.75,18.625 C 16.655856,19.333677 16.887225,20.061881 17.40625,20.5625 C 17.96132,21.224981 18.91444,21.349689 19.46875,22 C 19.851354,22.691358 19.399957,23.497096 19.46875,24.25 C 19.416623,26.422892 18.843972,28.08609 19.65625,30.15625 C 19.6688,30.168403 19.707636,30.206859 19.71875,30.21875 C 19.723969,30.224633 19.745104,30.244178 19.75,30.25 C 19.772935,30.278812 19.796223,30.316279 19.8125,30.34375 C 19.836756,30.387318 19.860938,30.458982 19.875,30.5 C 19.903475,30.591187 19.922527,30.694028 19.96875,30.78125 C 19.971508,30.786101 19.997037,30.807642 20,30.8125 C 20.009545,30.827101 20.019478,30.860286 20.03125,30.875 C 20.03545,30.879921 20.05801,30.901311 20.0625,30.90625 C 20.067295,30.911209 20.088637,30.932519 20.09375,30.9375 C 20.099197,30.942505 20.119206,30.96372 20.125,30.96875 C 20.192709,31.024382 20.28443,31.095973 20.40625,31.15625 C 20.547773,31.17857 20.676308,31.16518 20.75,31.15625 C 20.756771,31.155064 20.775063,31.157725 20.78125,31.15625 C 20.786868,31.154489 20.807436,31.158293 20.8125,31.15625 C 20.817024,31.153928 20.839751,31.127597 20.84375,31.125 C 20.846742,31.121864 20.87249,31.09715 20.875,31.09375 C 20.876591,31.089832 20.873847,31.066672 20.875,31.0625 C 20.875729,31.058078 20.874679,31.035918 20.875,31.03125 C 20.874093,31.020949 20.877338,30.979987 20.875,30.96875 C 20.873495,30.962903 20.876826,30.943572 20.875,30.9375 C 20.804613,30.729812 20.572256,30.382782 20.4375,30 C 20.287187,29.205002 21.255449,27.690347 21.96875,27.125 C 22.387947,26.844585 22.516446,26.484811 22.75,26.21875 C 22.755712,26.212499 22.775375,26.193664 22.78125,26.1875 C 22.7873,26.181426 22.806264,26.16223 22.8125,26.15625 C 22.82537,26.144486 22.861263,26.105103 22.875,26.09375 C 22.931822,26.049204 23.01849,26.005368 23.09375,25.96875 C 23.102014,25.96471 23.14166,25.944152 23.15625,25.9375 C 23.160437,25.935841 23.183253,25.939135 23.1875,25.9375 C 23.19397,25.934649 23.211613,25.940622 23.21875,25.9375 C 23.231673,25.932667 23.236518,25.910863 23.25,25.90625 C 23.356594,25.861115 23.505833,25.798402 23.59375,25.75 C 24.390551,25.542198 24.799761,24.755927 25.03125,24.03125 C 25.273447,23.016907 26.290906,22.541037 27.1875,22.21875 C 27.441016,22.180905 27.641284,22.037353 27.78125,21.875 C 28.115623,21.456648 28.121337,20.735124 27.78125,20.28125 C 27.702332,20.176188 27.59138,20.083052 27.5,20 C 26.525543,19.14324 24.914316,19.387314 23.96875,18.4375 C 23.408692,17.67421 22.803214,16.926998 22,16.40625 C 21.319347,15.940095 20.471277,15.531093 19.625,15.75 C 19.001471,15.855592 18.685831,16.178119 18.28125,16.4375 C 18.275823,16.444933 18.268658,16.44918 18.25,16.46875 C 18.244299,16.47303 18.225591,16.463507 18.21875,16.46875 C 18.205508,16.482506 18.174074,16.513066 18.15625,16.53125 C 18.137898,16.509992 18.092995,16.488394 18.0625,16.46875 C 18.049371,16.461014 18.014951,16.444999 18,16.4375 C 17.762377,16.326731 17.325932,16.2322 16.78125,16.15625 C 16.059743,15.258472 13.552981,14.440653 14.53125,12.8125 C 15.039532,12.037694 15.789715,12.07077 16.277741,11.991999 C 16.435209,11.966582 17.496064,12.042018 17.649002,12.105072 C 17.757461,12.149789 17.781531,12.182329 17.875756,12.245086 C 17.993937,12.3238 17.892173,12.643007 17.984375,12.871094 C 17.99342,12.893467 18.123952,12.899716 18.1875,12.875 C 18.195421,12.871919 18.770703,9.832043 20.09375,8.84375 C 21.810106,7.6023702 20.228556,5.8526614 18.6875,5.53125 C 18.45095,5.32712 18.207181,5.1946485 18,5.125 C 17.934555,5.1046043 17.843239,5.1022268 17.78125,5.09375 C 17.737337,5.0888667 17.667038,5.061693 17.625,5.0625 C 17.600008,5.0636469 17.555539,5.090655 17.53125,5.09375 C 17.5072,5.0974809 17.460824,5.0881515 17.4375,5.09375 C 17.414422,5.0999577 17.366079,5.1170051 17.34375,5.125 C 17.329033,5.1307182 17.295625,5.1497687 17.28125,5.15625 C 17.267048,5.1631061 17.232603,5.1799076 17.21875,5.1875 C 17.15037,5.227269 17.059197,5.2871373 17,5.34375 C 16.638888,5.7044304 16.448966,6.3719429 16.53125,7.0625 C 16.245611,7.1428195 16.004502,7.1645423 15.8125,7.125 C 15.75619,7.1115739 15.673798,7.0848372 15.625,7.0625 C 15.537763,7.0189689 15.439071,6.9442028 15.375,6.875 C 15.34678,6.8425951 15.305092,6.7868713 15.28125,6.75 C 14.904148,6.1315762 15.08628,4.9557033 15.34375,4.25 C 15.296091,4.1768576 15.240379,4.0868714 15.1875,4.03125 C 15.133913,3.9779987 15.058285,3.9125908 15,3.875 C 14.873746,3.7989575 14.706723,3.7356972 14.5625,3.71875 C 14.465659,3.7096986 14.353027,3.7079444 14.25,3.71875 z "
       id="path2194"
       sodipodi:nodetypes="cccsscsssssssssssssccssssccccssssssssssssssssssssccssssssssscccssscccssssssccsssssccssssssssscsssscsssc" />
    <path
       style="fill:#00aeb5;fill-opacity:1;fill-rule:nonzero;stroke:none;stroke-width:1px;stroke-linecap:butt;stroke-linejoin:miter;stroke-opacity:1"
       id="path2202"
       d="M 16.891924,4.4545251 C 16.808434,4.3350665 16.456187,4.1438525 16.463338,3.9988375 C 16.463507,3.7786845 16.466434,3.5584442 16.46135,3.3383506 C 16.433927,3.1236893 16.355987,2.937239 16.245528,2.7493421 C 16.133884,2.5835008 16.022071,2.4773358 15.812166,2.4525955 C 15.592908,2.4318842 15.37298,2.431565 15.15209,2.4352388 C 14.929631,2.4356696 14.703653,2.4473868 14.485146,2.3989172 C 14.268481,2.335099 14.085489,2.2633255 13.971985,2.0527767 C 13.877709,1.8539202 13.835269,1.6658065 13.858901,1.441933 C 13.869191,1.2281044 13.890056,1.0574071 14.067878,0.91660644 C 14.45564,0.68633944 14.697772,0.52179944 15.126274,0.47712228 C 15.369083,0.44566248 15.61532,0.44292888 15.859199,0.47412958 C 16.140182,0.51494344 16.433981,0.49000764 16.699644,0.60462734 C 16.908812,0.73988554 17.104676,0.89638184 17.323381,1.017749 C 17.49577,1.1302622 17.658406,1.2560387 17.832603,1.3659681 C 18.016145,1.4890375 18.198771,1.614594 18.399135,1.7090302 C 18.597161,1.8073218 18.806462,1.8694509 19.014881,1.9427324 C 19.188216,2.0553776 19.325832,2.1983065 19.429773,2.3821785 C 19.553477,2.5800591 19.644517,2.7590125 19.60033,3.0007221 C 19.501846,3.362321 19.159331,3.5255627 18.795533,3.6331386 C 18.483948,3.7485033 19.115236,3.1537917 18.98953,3.7386639 C 19.06516,3.9023204 19.143613,4.0648681 19.240127,4.2175381 C 19.353295,4.4173779 19.489034,4.6099295 19.43106,4.8479743 C 19.001596,5.1310226 18.430423,5.0533459 17.988163,4.8812074 L 16.891924,4.4545251 z "
       sodipodi:nodetypes="csssssssscsscssscssscscsc" />
    <path
       style="fill:#00aeb5;fill-opacity:1;fill-rule:nonzero;stroke:none;stroke-width:1px;stroke-linecap:butt;stroke-linejoin:miter;stroke-opacity:1"
       d="M 12.749138,2.0184615 C 13.007785,1.8996871 13.139673,1.7179761 13.435965,1.8187915 C 13.6907,1.8696233 13.952477,2.0819204 13.923026,2.3646918 C 13.868664,2.6212935 13.596087,2.7564531 13.533373,3.011735 C 13.452359,3.2425995 13.353453,3.4954806 13.119553,3.6107087 C 12.856908,3.7879207 12.531212,3.8342889 12.221208,3.8071049 C 11.950341,3.8060353 11.674199,3.8149596 11.414437,3.8995242 C 10.93654,3.9280076 10.409933,3.8971066 10.026862,3.574517 C 9.6551318,3.3264434 9.1693598,3.2330361 8.8986468,2.8497159 C 8.7119068,2.6016949 8.7542658,2.2731099 8.7524868,1.9819213 C 8.7728538,1.7094029 8.7816568,1.43283 8.8345188,1.1649291 C 8.9339238,0.89291874 9.2313198,0.79171984 9.4726298,0.68184504 C 9.7458068,0.57143844 10.056884,0.59211794 10.318187,0.72523774 C 10.635355,0.85953014 10.956072,1.0100169 11.30621,1.0250921 C 11.616131,1.0645307 11.864255,1.2753172 12.051845,1.5119395 C 12.216561,1.697013 12.522202,2.1161951 12.749138,2.0184615 z "
       id="path2204"
       sodipodi:nodetypes="ccsscsccsscsssss" />
  </g>
</svg>
