<?xml version="1.0" encoding="UTF-8" standalone="no"?>
<!-- Created with Inkscape (http://www.inkscape.org/) -->
<svg
   xmlns:dc="http://purl.org/dc/elements/1.1/"
   xmlns:cc="http://web.resource.org/cc/"
   xmlns:rdf="http://www.w3.org/1999/02/22-rdf-syntax-ns#"
   xmlns:svg="http://www.w3.org/2000/svg"
   xmlns="http://www.w3.org/2000/svg"
   xmlns:sodipodi="http://sodipodi.sourceforge.net/DTD/sodipodi-0.dtd"
   xmlns:inkscape="http://www.inkscape.org/namespaces/inkscape"
   width="25.6pt"
   height="25.6pt"
   id="svg2"
   sodipodi:version="0.32"
   inkscape:version="0.44"
   version="1.0"
   sodipodi:docbase="/home/steve/Applications/CVS/PhamDB"
   sodipodi:docname="buildPhams.svg">
  <defs
     id="defs4">
    <linearGradient
       id="linearGradient2246">
      <stop
         style="stop-color:#0000ff;stop-opacity:1;"
         offset="0"
         id="stop2248" />
      <stop
         style="stop-color:#ff9b00;stop-opacity:0.48453608;"
         offset="1"
         id="stop2250" />
    </linearGradient>
    <linearGradient
       id="linearGradient11974">
      <stop
         style="stop-color:#0000ff;stop-opacity:0.52577317;"
         offset="0"
         id="stop11976" />
      <stop
         style="stop-color:#0076ff;stop-opacity:0.17525773;"
         offset="1"
         id="stop11978" />
    </linearGradient>
  </defs>
  <sodipodi:namedview
     id="base"
     pagecolor="#ffffff"
     bordercolor="#666666"
     borderopacity="1.0"
     inkscape:pageopacity="0.0"
     inkscape:pageshadow="2"
     inkscape:zoom="23.90625"
     inkscape:cx="16"
     inkscape:cy="16"
     inkscape:document-units="px"
     inkscape:current-layer="layer1"
     inkscape:window-width="1680"
     inkscape:window-height="975"
     inkscape:window-x="0"
     inkscape:window-y="25" />
  <metadata
     id="metadata7">
    <rdf:RDF>
      <cc:Work
         rdf:about="">
        <dc:format>image/svg+xml</dc:format>
        <dc:type
           rdf:resource="http://purl.org/dc/dcmitype/StillImage" />
      </cc:Work>
    </rdf:RDF>
  </metadata>
  <g
     inkscape:label="Layer 1"
     inkscape:groupmode="layer"
     id="layer1">
    <path
       style="color:black;fill:black;fill-opacity:1;fill-rule:nonzero;stroke:black;stroke-width:0.16920625;stroke-linecap:butt;stroke-linejoin:miter;marker:none;marker-start:none;marker-mid:none;marker-end:none;stroke-miterlimit:4;stroke-dasharray:none;stroke-dashoffset:0;stroke-opacity:1;visibility:visible;display:inline;overflow:visible"
       d="M 16.65398,15.140643 L 17.157971,17.475229 L 17.401343,17.550076 L 16.953679,15.476515 L 18.708327,13.837389 L 20.723145,14.457955 L 20.666813,14.196938 L 18.408635,13.501518 L 16.65398,15.140643 z M 20.723145,14.457955 L 21.170338,16.531488 L 21.147197,16.552816 L 19.416155,18.170649 L 17.401343,17.550076 L 17.457664,17.811099 L 19.715807,18.506955 L 21.326744,17.013861 C 21.973226,17.362788 22.804438,17.914193 23.684279,18.120781 C 24.579393,18.32694 25.484587,18.164866 26.373262,18.016722 C 27.178853,17.913317 27.951202,17.650821 28.760839,17.574914 C 28.985166,17.56434 29.209515,17.589225 29.432537,17.608902 L 29.144984,16.958846 C 28.918303,16.941216 28.689858,16.910384 28.462712,16.937563 C 27.661946,17.055639 26.881717,17.278242 26.082883,17.408731 C 25.201885,17.564835 24.304534,17.687028 23.418032,17.491095 C 22.800571,17.353601 22.210772,17.120732 21.671431,16.810424 C 21.602813,16.770949 21.503762,16.681552 21.41143,16.59483 L 20.966505,14.532808 L 20.723145,14.457955 z "
       id="path1315"
       sodipodi:nodetypes="cccccccccccccccccccccccccsccc" />
    <path
       style="color:black;fill:black;fill-opacity:1;fill-rule:nonzero;stroke:black;stroke-width:0.25918737;stroke-linecap:butt;stroke-linejoin:miter;marker:none;marker-start:none;marker-mid:none;marker-end:none;stroke-miterlimit:4;stroke-dasharray:none;stroke-dashoffset:0;stroke-opacity:1;visibility:visible;display:inline;overflow:visible"
       d="M 4.9485182,12.277582 L 1.279607,13.623771 L 1.2247362,13.983137 L 4.4834259,12.787432 L 7.6417319,14.776654 L 7.1859482,17.752047 L 7.5961587,17.601564 L 8.1068242,14.266811 L 4.9485182,12.277582 z M 7.1859482,17.752047 L 3.9271757,18.947087 L 3.8859987,18.920769 L 0.76894147,16.958522 L 1.2247362,13.983137 L 0.81451532,14.133612 L 0.30313156,17.468431 L 3.1835471,19.297986 C 2.7929339,20.294053 2.123073,21.603135 2.0290956,22.884656 C 1.9400259,24.187313 2.454405,25.4023 2.9414976,26.598149 C 3.3326609,27.690717 3.9741485,28.693093 4.3215784,29.798888 C 4.400792,30.108164 4.4221577,30.427256 4.451659,30.743072 L 5.4325936,30.163349 C 5.398743,29.843011 5.3859436,29.516573 5.278871,29.207961 C 4.8651031,28.12615 4.2865165,27.101797 3.853035,26.026111 C 3.3550831,24.843145 2.9079305,23.628064 2.9826847,22.340211 C 3.036428,21.442922 3.2533722,20.557791 3.6105822,19.72149 C 3.6560214,19.615097 3.774481,19.452555 3.8904405,19.30011 L 7.1310633,18.111405 L 7.1859482,17.752047 z "
       id="path1317"
       sodipodi:nodetypes="cccccccccccccccccccccccccsccc" />
    <path
       style="color:black;fill:black;fill-opacity:1;fill-rule:nonzero;stroke:black;stroke-width:0.41377345;stroke-linecap:butt;stroke-linejoin:miter;marker:none;marker-start:none;marker-mid:none;marker-end:none;stroke-miterlimit:4;stroke-dasharray:none;stroke-dashoffset:0;stroke-opacity:1;visibility:visible;display:inline;overflow:visible"
       d="M 25.865514,1.3494621 L 20.048138,3.5888165 L 19.970944,4.163792 L 25.137887,2.1747674 L 30.236725,5.2720041 L 29.595288,10.032585 L 30.245716,9.7822593 L 30.964358,4.4467114 L 25.865514,1.3494621 z M 29.595288,10.032585 L 24.428203,12.020554 L 24.361714,11.979559 L 19.329492,8.924361 L 19.970944,4.163792 L 19.320502,4.4141053 L 18.600713,9.7497741 L 23.251373,12.599012 C 22.656695,14.198579 21.625335,16.304672 21.512409,18.352562 C 21.407924,20.434064 22.264127,22.360731 23.076225,24.257524 C 23.732211,25.99183 24.785157,27.575985 25.371719,29.332487 C 25.507105,29.824199 25.550443,30.333006 25.606666,30.836385 L 27.155665,29.886813 C 27.092365,29.376325 27.062491,28.855583 26.882655,28.365612 C 26.190896,26.649043 25.237715,25.028247 24.514672,23.321937 C 23.685608,21.445974 22.93671,19.517498 23.018778,17.459976 C 23.078604,16.026398 23.39928,14.608196 23.945264,13.26447 C 24.014714,13.093524 24.199098,12.83115 24.379783,12.584956 L 29.518084,10.607549 L 29.595288,10.032585 z "
       id="path1319"
       sodipodi:nodetypes="cccccccccccccccccccccccccsccc" />
    <path
       style="color:black;fill:black;fill-opacity:1;fill-rule:nonzero;stroke:black;stroke-width:0.41377345;stroke-linecap:butt;stroke-linejoin:miter;marker:none;marker-start:none;marker-mid:none;marker-end:none;stroke-miterlimit:4;stroke-dasharray:none;stroke-dashoffset:0;stroke-opacity:1;visibility:visible;display:inline;overflow:visible"
       d="M 9.7147698,0.97248742 L 15.371309,3.53943 L 15.409906,4.1177126 L 10.385828,1.8377261 L 5.0896254,4.6381772 L 5.4115278,9.4262627 L 4.779084,9.1393088 L 4.4185645,3.7729512 L 9.7147698,0.97248742 z M 5.4115278,9.4262627 L 10.435825,11.705203 L 10.504929,11.66808 L 15.731828,8.9057875 L 15.409906,4.1177126 L 16.04237,4.404655 L 16.404025,9.7711994 L 11.571731,12.349693 C 12.058324,13.98013 12.946894,16.14104 12.922678,18.191461 C 12.887786,20.274949 11.904392,22.149091 10.967016,23.995935 C 10.196323,25.689517 9.0394647,27.210577 8.3365777,28.930259 C 8.1685688,29.413312 8.0912972,29.918678 8.0015207,30.417884 L 6.5189745,29.381766 C 6.616282,28.875861 6.6809166,28.357813 6.8931712,27.879041 C 7.6983852,26.205208 8.7581169,24.641885 9.5938754,22.980078 C 10.546784,21.154994 11.423202,19.272919 11.478869,17.214645 C 11.515013,15.78039 11.289767,14.346601 10.834672,12.974295 C 10.776787,12.799712 10.610298,12.527321 10.44642,12.27129 L 5.4501445,10.004533 L 5.4115278,9.4262627 z "
       id="path1321"
       sodipodi:nodetypes="cccccccccccccccccccccccccsccc" />
    <path
       sodipodi:type="arc"
       style="opacity:1;fill:#935328;fill-opacity:1;fill-rule:nonzero;stroke:none;stroke-width:0.40000001;stroke-miterlimit:4;stroke-dasharray:none;stroke-dashoffset:0;stroke-opacity:1"
       id="path3581"
       sodipodi:cx="68.145943"
       sodipodi:cy="-4.3713832"
       sodipodi:rx="1.5322756"
       sodipodi:ry="1.5322756"
       d="M 69.678218 -4.3713832 A 1.5322756 1.5322756 0 1 1  66.613667,-4.3713832 A 1.5322756 1.5322756 0 1 1  69.678218 -4.3713832 z"
       transform="matrix(0.484131,0,0,0.484131,-24.22583,7.579915)" />
    <path
       sodipodi:type="arc"
       style="opacity:1;fill:#935328;fill-opacity:1;fill-rule:nonzero;stroke:none;stroke-width:0.40000001;stroke-miterlimit:4;stroke-dasharray:none;stroke-dashoffset:0;stroke-opacity:1"
       id="path4468"
       sodipodi:cx="68.145943"
       sodipodi:cy="-4.3713832"
       sodipodi:rx="1.5322756"
       sodipodi:ry="1.5322756"
       d="M 69.678218 -4.3713832 A 1.5322756 1.5322756 0 1 1  66.613667,-4.3713832 A 1.5322756 1.5322756 0 1 1  69.678218 -4.3713832 z"
       transform="matrix(0.484131,0,0,0.484131,-21.45376,7.697041)" />
    <path
       sodipodi:type="arc"
       style="opacity:1;fill:blue;fill-opacity:1;fill-rule:nonzero;stroke:none;stroke-width:0.40000001;stroke-miterlimit:4;stroke-dasharray:none;stroke-dashoffset:0;stroke-opacity:1"
       id="path4470"
       sodipodi:cx="68.145943"
       sodipodi:cy="-4.3713832"
       sodipodi:rx="1.5322756"
       sodipodi:ry="1.5322756"
       d="M 69.678218 -4.3713832 A 1.5322756 1.5322756 0 1 1  66.613667,-4.3713832 A 1.5322756 1.5322756 0 1 1  69.678218 -4.3713832 z"
       transform="matrix(0.484131,0,0,0.484131,-9.314148,8.020536)" />
    <path
       sodipodi:type="arc"
       style="opacity:1;fill:blue;fill-opacity:1;fill-rule:nonzero;stroke:none;stroke-width:0.40000001;stroke-miterlimit:4;stroke-dasharray:none;stroke-dashoffset:0;stroke-opacity:1"
       id="path4472"
       sodipodi:cx="68.145943"
       sodipodi:cy="-4.3713832"
       sodipodi:rx="1.5322756"
       sodipodi:ry="1.5322756"
       d="M 69.678218 -4.3713832 A 1.5322756 1.5322756 0 1 1  66.613667,-4.3713832 A 1.5322756 1.5322756 0 1 1  69.678218 -4.3713832 z"
       transform="matrix(0.484131,0,0,0.484131,-6.581118,8.254793)" />
    <path
       sodipodi:type="arc"
       style="opacity:1;fill:blue;fill-opacity:1;fill-rule:nonzero;stroke:none;stroke-width:0.40000001;stroke-miterlimit:4;stroke-dasharray:none;stroke-dashoffset:0;stroke-opacity:1"
       id="path4474"
       sodipodi:cx="68.145943"
       sodipodi:cy="-4.3713832"
       sodipodi:rx="1.5322756"
       sodipodi:ry="1.5322756"
       d="M 69.678218 -4.3713832 A 1.5322756 1.5322756 0 1 1  66.613667,-4.3713832 A 1.5322756 1.5322756 0 1 1  69.678218 -4.3713832 z"
       transform="matrix(0.350222,0,0,0.350222,-20.37571,16.41604)" />
    <path
       sodipodi:type="arc"
       style="opacity:1;fill:blue;fill-opacity:1;fill-rule:nonzero;stroke:none;stroke-width:0.40000001;stroke-miterlimit:4;stroke-dasharray:none;stroke-dashoffset:0;stroke-opacity:1"
       id="path4476"
       sodipodi:cx="68.145943"
       sodipodi:cy="-4.3713832"
       sodipodi:rx="1.5322756"
       sodipodi:ry="1.5322756"
       d="M 69.678218 -4.3713832 A 1.5322756 1.5322756 0 1 1  66.613667,-4.3713832 A 1.5322756 1.5322756 0 1 1  69.678218 -4.3713832 z"
       transform="matrix(0.350222,0,0,0.350222,-18.79404,16.47252)" />
    <path
       sodipodi:type="arc"
       style="opacity:1;fill:blue;fill-opacity:1;fill-rule:nonzero;stroke:none;stroke-width:0.40000001;stroke-miterlimit:4;stroke-dasharray:none;stroke-dashoffset:0;stroke-opacity:1"
       id="path4478"
       sodipodi:cx="68.145943"
       sodipodi:cy="-4.3713832"
       sodipodi:rx="1.5322756"
       sodipodi:ry="1.5322756"
       d="M 69.678218 -4.3713832 A 1.5322756 1.5322756 0 1 1  66.613667,-4.3713832 A 1.5322756 1.5322756 0 1 1  69.678218 -4.3713832 z"
       transform="matrix(0.308084,0,0,0.308084,-2.510715,16.66775)" />
    <path
       sodipodi:type="arc"
       style="opacity:1;fill:blue;fill-opacity:1;fill-rule:nonzero;stroke:none;stroke-width:0.40000001;stroke-miterlimit:4;stroke-dasharray:none;stroke-dashoffset:0;stroke-opacity:1"
       id="path4480"
       sodipodi:cx="68.145943"
       sodipodi:cy="-4.3713832"
       sodipodi:rx="1.5322756"
       sodipodi:ry="1.5322756"
       d="M 69.678218 -4.3713832 A 1.5322756 1.5322756 0 1 1  66.613667,-4.3713832 A 1.5322756 1.5322756 0 1 1  69.678218 -4.3713832 z"
       transform="matrix(0.308084,0,0,0.308084,-2.659788,18.00942)" />
    <path
       style="fill:black;fill-opacity:1;fill-rule:nonzero;stroke:none;stroke-width:1px;stroke-linecap:butt;stroke-linejoin:miter;stroke-opacity:1"
       id="path5369"
       d="M 23.248227,8.3410969 C 23.323101,8.3942249 23.413829,8.4365539 23.500142,8.4819194 C 23.620289,8.5542404 23.767868,8.5972971 23.913073,8.644219 C 24.086106,8.6885625 24.265575,8.7223229 24.44343,8.7580615 C 24.650627,8.7990708 24.861607,8.8228377 25.074571,8.8462145 C 25.264685,8.8593615 25.456037,8.8578815 25.64693,8.8592255 C 25.871785,8.8505402 26.078131,8.795752 26.289149,8.7511277 C 26.739532,8.6449825 27.681936,8.2799545 25.890816,8.9293277 C 25.962308,8.9052465 25.998501,8.8576036 26.051494,8.8223095 L 27.114467,8.5288516 C 27.065352,8.5715519 27.03246,8.6221707 26.967141,8.6569372 C 26.435004,8.8581468 25.957098,9.0719943 25.379908,9.2001733 C 25.161158,9.2452406 24.943846,9.2927745 24.710316,9.2903872 C 24.516587,9.2875038 24.322204,9.2879196 24.13012,9.2689078 C 23.91474,9.240377 23.699611,9.2126464 23.48886,9.1709962 C 23.30588,9.1338236 23.119191,9.1013273 22.945375,9.0485769 C 22.796464,8.9962612 22.644078,8.9482306 22.517482,8.8738216 C 22.427733,8.8262586 22.335038,8.7807338 22.25121,8.7288311 L 23.248227,8.3410969 z " />
    <path
       style="fill:black;fill-opacity:1;fill-rule:nonzero;stroke:none;stroke-width:1px;stroke-linecap:butt;stroke-linejoin:miter;stroke-opacity:1"
       id="path5373"
       d="M 8.0504299,7.7360723 C 8.2299355,7.8180376 8.3886927,7.9405523 8.5515621,8.0505212 C 8.9194799,8.293506 9.3032917,8.5141754 9.6896166,8.7276428 C 9.9100715,8.8609119 10.147996,8.9351989 10.399485,8.9792355 C 10.656705,9.0038226 10.895484,8.9009321 11.128164,8.8051739 C 12.239211,8.2080032 11.005667,8.9846708 11.735836,8.4484347 C 11.91336,8.3175267 12.060757,8.1557374 12.200978,7.9881452 C 12.211159,7.975493 12.221339,7.9628407 12.23152,7.9501884 L 12.683554,7.7605766 C 12.672596,7.7730957 12.661638,7.7856148 12.65068,7.798134 C 12.505747,7.9706124 12.355846,8.139639 12.174091,8.2764172 C 11.738473,8.6034743 11.255912,8.8717642 10.757477,9.093258 C 10.515266,9.1898005 10.268202,9.2915518 10.002066,9.2545894 C 9.7518347,9.200389 9.5156001,9.1171489 9.2976782,8.9790539 C 8.9130254,8.7594419 8.5274577,8.5398701 8.1547949,8.3010735 C 7.9957511,8.1987722 7.8332182,8.069396 7.6480022,8.0244948 L 8.0504299,7.7360723 z " />
    <path
       style="fill:black;fill-opacity:1;fill-rule:nonzero;stroke:none;stroke-width:1px;stroke-linecap:butt;stroke-linejoin:miter;stroke-opacity:1"
       id="path5375"
       d="M 19.648323,14.61313 C 19.711739,14.717389 19.772624,14.824871 19.832659,14.933385 C 19.956058,15.136638 20.044511,15.369762 20.126593,15.608503 C 20.18406,15.785021 20.190959,15.974939 20.203212,16.163642 C 20.200474,16.3026 20.152445,16.407899 20.104464,16.521983 C 19.914847,16.797337 19.646025,16.938847 19.40415,17.110379 C 20.244644,16.362 19.886733,16.700335 19.710871,16.911271 C 19.678075,16.953119 19.648874,17.000077 19.617904,17.04444 L 19.071195,17.361048 C 19.102299,17.315937 19.136952,17.275473 19.164683,17.225463 C 19.37655,16.949664 19.561409,16.768931 19.864158,16.591855 C 20.260428,16.296748 19.262567,17.127465 19.561095,16.846237 C 19.609986,16.747152 19.669993,16.6673 19.678431,16.536733 C 19.672288,16.358555 19.671195,16.179652 19.617897,16.011475 C 19.539967,15.777892 19.45649,15.548895 19.332742,15.354727 C 19.270935,15.250734 19.209781,15.145427 19.141121,15.050215 L 19.648323,14.61313 z " />
    <path
       style="fill:black;fill-opacity:1;fill-rule:nonzero;stroke:none;stroke-width:1px;stroke-linecap:butt;stroke-linejoin:miter;stroke-opacity:1"
       id="path5379"
       d="M 2.4410946,15.925654 C 2.5814403,16.207059 2.774825,16.414217 2.9615756,16.624262 C 3.2871464,16.991372 3.6619457,17.197745 4.0608033,17.312519 C 4.3941183,17.417266 4.7099029,17.374357 5.0283653,17.210154 C 5.4884495,16.852417 5.0090204,17.281267 5.6672967,16.551645 C 5.8608135,16.339048 6.0535417,16.124817 6.2435438,15.905508 L 6.6683552,15.656333 C 6.4743344,15.878338 6.2773105,16.094739 6.0801331,16.310673 C 5.6364871,16.803774 5.1876139,17.305539 4.6691212,17.619428 C 4.345681,17.771172 4.0253959,17.801255 3.6914965,17.689464 C 3.2888181,17.56546 2.912018,17.343251 2.5812229,16.97653 C 2.3850012,16.761643 2.1848465,16.548446 2.0261691,16.271946 L 2.4410946,15.925654 z " />
  </g>
</svg>
