<?xml version="1.0" encoding="UTF-8" standalone="no"?>
<!-- Created with Inkscape (http://www.inkscape.org/) -->
<svg
   xmlns:dc="http://purl.org/dc/elements/1.1/"
   xmlns:cc="http://web.resource.org/cc/"
   xmlns:rdf="http://www.w3.org/1999/02/22-rdf-syntax-ns#"
   xmlns:svg="http://www.w3.org/2000/svg"
   xmlns="http://www.w3.org/2000/svg"
   xmlns:xlink="http://www.w3.org/1999/xlink"
   xmlns:sodipodi="http://sodipodi.sourceforge.net/DTD/sodipodi-0.dtd"
   xmlns:inkscape="http://www.inkscape.org/namespaces/inkscape"
   width="25.6pt"
   height="25.6pt"
   id="svg2"
   sodipodi:version="0.32"
   inkscape:version="0.44"
   version="1.0"
   sodipodi:docbase="/home/steve/Applications/git/PhamDB"
   sodipodi:docname="map.svg">
  <defs
     id="defs4">
    <linearGradient
       id="linearGradient2760">
      <stop
         style="stop-color:blue;stop-opacity:1;"
         offset="0"
         id="stop2762" />
      <stop
         style="stop-color:blue;stop-opacity:0.28865978;"
         offset="1"
         id="stop2764" />
    </linearGradient>
    <radialGradient
       inkscape:collect="always"
       xlink:href="#linearGradient2760"
       id="radialGradient2766"
       cx="1.0606601"
       cy="11.493903"
       fx="1.0606601"
       fy="11.493903"
       r="15.998291"
       gradientUnits="userSpaceOnUse" />
  </defs>
  <sodipodi:namedview
     id="base"
     pagecolor="#ffffff"
     bordercolor="#666666"
     borderopacity="1.0"
     inkscape:pageopacity="0.0"
     inkscape:pageshadow="2"
     inkscape:zoom="11.313709"
     inkscape:cx="17.928931"
     inkscape:cy="15.99773"
     inkscape:document-units="px"
     inkscape:current-layer="layer1"
     inkscape:window-width="1270"
     inkscape:window-height="689"
     inkscape:window-x="0"
     inkscape:window-y="25" />
  <metadata
     id="metadata7">
    <rdf:RDF>
      <cc:Work
         rdf:about="">
        <dc:format>image/svg+xml</dc:format>
        <dc:type
           rdf:resource="http://purl.org/dc/dcmitype/StillImage" />
      </cc:Work>
    </rdf:RDF>
  </metadata>
  <g
     inkscape:label="Layer 1"
     inkscape:groupmode="layer"
     id="layer1">
    <path
       sodipodi:type="arc"
       style="opacity:1;fill:url(#radialGradient2766);fill-opacity:1.0;stroke:none;stroke-width:2.8210001;stroke-miterlimit:4;stroke-dasharray:none;stroke-opacity:1"
       id="path1872"
       sodipodi:cx="1.0606601"
       sodipodi:cy="11.493903"
       sodipodi:rx="15.998291"
       sodipodi:ry="15.998291"
       d="M 17.058951 11.493903 A 15.998291 15.998291 0 1 1  -14.937631,11.493903 A 15.998291 15.998291 0 1 1  17.058951 11.493903 z"
       transform="translate(14.93763,4.507806)" />
    <path
       style="fill:#006b00;fill-opacity:1;fill-rule:nonzero;stroke:none;stroke-width:1px;stroke-linecap:butt;stroke-linejoin:miter;stroke-opacity:1"
       d="M 14.437892,5.6671718 C 13.688932,5.7457239 12.769617,6.3790677 12.034075,6.2747299 C 10.508789,7.1700954 8.7925736,5.1677136 7.3585197,6.2747299 C 6.4824206,7.2035911 6.6745576,8.826419 7.3585197,9.576676 C 7.3952933,9.615702 7.4511834,9.674861 7.4905976,9.708754 C 7.5370743,9.747246 7.5993167,9.783692 7.649091,9.814416 C 8.0934602,9.777836 8.3601886,9.668206 8.6000515,9.655923 C 8.6199756,9.65531 8.6594349,9.655188 8.6792982,9.655923 C 8.6991855,9.657145 8.7384533,9.679538 8.7585449,9.682339 C 8.8124223,9.69131 8.8850577,9.712322 8.9434539,9.73517 C 9.0174868,9.766186 9.1191481,9.80816 9.2076096,9.867248 C 9.211942,9.870347 9.2297819,9.89042 9.2340252,9.893663 C 9.2423369,9.900432 9.2524693,9.912758 9.2604408,9.920079 C 9.2643439,9.923874 9.2830343,9.942566 9.2868564,9.946494 C 9.290599,9.950553 9.3096071,9.968723 9.3132719,9.97291 C 9.6936653,10.430078 9.5335467,11.496504 10.024172,12.085714 C 10.061967,12.129361 10.824015,12.544346 10.885267,12.49815 C 10.928956,12.465201 9.9610031,11.732915 9.9473596,11.671249 C 9.8917965,11.420115 10.876124,12.528671 12.879374,13.565427 C 13.609759,13.943429 14.000767,14.559016 14.200152,14.912621 C 15.153728,15.690844 16.121916,16.45726 17.449267,16.814543 C 17.115375,17.171555 16.685899,17.712649 16.577554,18.108906 C 16.57448,18.121251 16.553518,18.149659 16.551138,18.161737 C 16.549115,18.173673 16.552425,18.202926 16.551138,18.214568 C 16.550229,18.226055 16.55127,18.256235 16.551138,18.267399 C 16.471558,18.866442 16.667134,19.481992 17.105865,19.905164 C 17.575065,20.465158 18.380735,20.570574 18.849293,21.120281 C 19.172707,21.704684 18.791142,22.385773 18.849293,23.022202 C 18.80523,24.858943 18.321169,26.264842 19.007786,28.014744 C 19.018395,28.025017 19.051223,28.057524 19.060617,28.067576 C 19.065029,28.072549 19.082894,28.08907 19.087033,28.093991 C 19.10642,28.118346 19.126105,28.150017 19.139864,28.173238 C 19.160367,28.210066 19.180808,28.270643 19.192695,28.305316 C 19.216765,28.382396 19.232869,28.469327 19.271942,28.543056 C 19.274273,28.547156 19.295853,28.565365 19.298357,28.569471 C 19.306426,28.581814 19.314822,28.609865 19.324773,28.622303 C 19.328323,28.626462 19.347393,28.644543 19.351188,28.648718 C 19.355242,28.65291 19.373282,28.670923 19.377604,28.675134 C 19.382208,28.679364 19.399122,28.697297 19.40402,28.701549 C 19.461254,28.748575 19.538785,28.809091 19.64176,28.860043 C 19.761389,28.87891 19.870039,28.867591 19.932331,28.860043 C 19.938054,28.85904 19.953517,28.86129 19.958747,28.860043 C 19.963495,28.858554 19.980882,28.86177 19.985162,28.860043 C 19.988986,28.85808 20.008197,28.835822 20.011578,28.833627 C 20.014107,28.830976 20.035872,28.810086 20.037993,28.807212 C 20.039338,28.8039 20.037019,28.784323 20.037993,28.780796 C 20.038609,28.777058 20.037722,28.758326 20.037993,28.75438 C 20.037227,28.745673 20.03997,28.711048 20.037993,28.701549 C 20.036721,28.696607 20.039537,28.680266 20.037993,28.675134 C 19.978495,28.499575 19.782084,28.206232 19.668175,27.882667 C 19.541116,27.210656 20.359586,25.930321 20.962538,25.452434 C 21.316885,25.2154 21.425505,24.911283 21.622927,24.686383 C 21.627756,24.681099 21.644377,24.665177 21.649343,24.659967 C 21.654457,24.654833 21.670487,24.638606 21.675759,24.633551 C 21.686638,24.623607 21.716978,24.590317 21.72859,24.58072 C 21.776621,24.543066 21.849882,24.506011 21.913499,24.475058 C 21.920484,24.471643 21.953997,24.454265 21.96633,24.448642 C 21.969869,24.44724 21.989155,24.450025 21.992745,24.448642 C 21.998215,24.446233 22.013128,24.451281 22.019161,24.448642 C 22.030085,24.444557 22.03418,24.426126 22.045577,24.422227 C 22.13568,24.384074 22.261832,24.331063 22.336148,24.290149 C 23.009682,24.114494 23.355587,23.449861 23.551264,22.837293 C 23.755993,21.97987 24.616049,21.577618 25.373939,21.30519 C 25.588235,21.273199 25.757521,21.151855 25.875834,21.014618 C 26.158479,20.660986 26.163309,20.051083 25.875834,19.667424 C 25.809125,19.578615 25.715338,19.499888 25.638094,19.429684 C 24.814387,18.705466 23.45242,18.911782 22.653135,18.108906 C 22.179719,17.463698 21.667909,16.832081 20.988954,16.391893 C 20.413599,15.997853 19.696727,15.652125 18.98137,15.837166 C 18.454302,15.926423 18.187493,16.199055 17.845501,16.418309 C 17.840913,16.424592 17.834857,16.428182 17.819085,16.444725 C 17.814266,16.448342 17.798452,16.440293 17.79267,16.444725 C 17.781476,16.456353 17.754905,16.482185 17.739839,16.497556 C 17.724326,16.479586 17.686369,16.46133 17.660592,16.444725 C 17.649494,16.438185 17.620399,16.424648 17.607761,16.418309 C 17.406898,16.324676 17.037972,16.244769 16.577554,16.180569 C 15.967665,15.421679 13.848703,14.730378 14.675632,13.354103 C 15.105282,12.699161 15.739411,12.72712 16.151938,12.660535 C 16.285046,12.63905 17.181785,12.702816 17.311063,12.756115 C 17.402743,12.793914 17.423089,12.82142 17.502738,12.874469 C 17.602636,12.941006 17.516615,13.210831 17.594553,13.403632 C 17.602199,13.422544 17.712537,13.427826 17.766254,13.406934 C 17.77295,13.40433 18.259235,10.834728 19.377604,9.999325 C 20.828437,8.949989 19.491555,7.4709634 18.188903,7.1992749 C 17.988948,7.0267242 17.782891,6.9147462 17.607761,6.8558725 C 17.55244,6.838632 17.475251,6.8366223 17.422852,6.8294569 C 17.385732,6.8253291 17.326309,6.8023592 17.290774,6.8030413 C 17.269648,6.8040108 17.232059,6.8268407 17.211527,6.8294569 C 17.191198,6.8326106 17.151996,6.8247245 17.132281,6.8294569 C 17.112773,6.8347043 17.071908,6.8491144 17.053034,6.8558725 C 17.040594,6.8607061 17.012354,6.8768094 17.000203,6.882288 C 16.988198,6.8880835 16.959081,6.9022858 16.947372,6.9087036 C 16.88957,6.9423203 16.812502,6.9929269 16.762463,7.0407815 C 16.457215,7.345664 16.296674,7.909911 16.366229,8.493638 C 16.124779,8.561532 15.92097,8.579894 15.758671,8.546469 C 15.711072,8.53512 15.641426,8.512519 15.600177,8.493638 C 15.526436,8.456841 15.443012,8.393641 15.388853,8.335144 C 15.364999,8.307753 15.32976,8.260649 15.309606,8.229482 C 14.990842,7.70673 15.144798,6.7127663 15.362437,6.1162365 C 15.322151,6.0544094 15.275058,5.9783442 15.230359,5.9313275 C 15.185062,5.8863143 15.121134,5.8310251 15.071866,5.7992497 C 14.965144,5.7349711 14.823959,5.6814972 14.702048,5.6671718 C 14.620188,5.6595207 14.524981,5.6580378 14.437892,5.6671718 z "
       id="path2194"
       sodipodi:nodetypes="cccsscsssssssssssssccssssccccssssssssssssssssssssccssssssssscccssscccssssssccsssssccssssssssscsssscsssc" />
    <path
       style="fill:#00aeb5;fill-opacity:1;fill-rule:nonzero;stroke:none;stroke-width:1px;stroke-linecap:butt;stroke-linejoin:miter;stroke-opacity:1"
       id="path2202"
       d="M 16.671106,6.2891212 C 16.600532,6.1881431 16.302778,6.0265102 16.308823,5.9039293 C 16.308966,5.7178343 16.31144,5.5316656 16.307143,5.3456209 C 16.283962,5.164168 16.218079,5.0065619 16.124709,4.847733 C 16.030336,4.7075476 15.935821,4.6178065 15.758389,4.5968936 C 15.57305,4.5793864 15.387145,4.5791166 15.200427,4.582222 C 15.012383,4.5825862 14.821364,4.5924907 14.636661,4.5515194 C 14.453514,4.497574 14.298831,4.436904 14.202887,4.2589275 C 14.123195,4.0908344 14.087321,3.9318222 14.107297,3.7425824 C 14.115995,3.5618334 14.133632,3.4175433 14.283945,3.2985247 C 14.611719,3.1038804 14.816393,2.9647951 15.178605,2.9270295 C 15.383851,2.9004366 15.591995,2.8981259 15.798145,2.9244998 C 16.03566,2.9589997 16.284008,2.9379215 16.508572,3.0348093 C 16.685381,3.1491429 16.850945,3.2814289 17.035816,3.3840204 C 17.181536,3.4791276 17.319012,3.5854462 17.46626,3.6783694 C 17.621408,3.7823997 17.775782,3.8885324 17.945149,3.9683592 C 18.11254,4.0514449 18.289462,4.1039625 18.465638,4.1659072 C 18.612158,4.261126 18.728484,4.3819436 18.816345,4.5373702 C 18.920912,4.7046384 18.997868,4.8559074 18.960517,5.0602241 C 18.877269,5.365883 18.587741,5.5038709 18.280223,5.5948046 C 18.016841,5.6923222 18.550468,5.1896135 18.444209,5.684005 C 18.508139,5.8223435 18.574455,5.9597448 18.656038,6.0887965 C 18.751699,6.2577207 18.866439,6.4204843 18.817433,6.6217031 C 18.454408,6.8609634 17.971597,6.7953034 17.597755,6.649795 L 16.671106,6.2891212 z "
       sodipodi:nodetypes="csssssssscsscssscssscscsc" />
    <path
       style="fill:#00aeb5;fill-opacity:1;fill-rule:nonzero;stroke:none;stroke-width:1px;stroke-linecap:butt;stroke-linejoin:miter;stroke-opacity:1"
       d="M 13.169216,4.2299209 C 13.38785,4.1295211 13.499335,3.9759211 13.74979,4.0611402 C 13.965117,4.1041082 14.186397,4.2835626 14.161502,4.5225888 C 14.11555,4.7394937 13.885141,4.8537439 13.832129,5.0695333 C 13.763648,5.2646826 13.680043,5.4784426 13.482327,5.5758447 C 13.260314,5.7256417 12.985004,5.7648366 12.722958,5.741858 C 12.493995,5.7409539 12.260572,5.7484976 12.040996,5.8199799 C 11.63703,5.8440569 11.191891,5.8179363 10.868081,5.5452519 C 10.553858,5.3355557 10.143236,5.2565987 9.9144031,4.9325788 C 9.7565521,4.7229271 9.7923581,4.4451747 9.7908543,4.1990335 C 9.8080705,3.9686742 9.8155116,3.7348876 9.8601958,3.5084314 C 9.9442227,3.2785016 10.195611,3.1929583 10.39959,3.1000813 C 10.630506,3.0067548 10.893459,3.0242352 11.114338,3.1367611 C 11.382439,3.2502782 11.653541,3.3774844 11.949512,3.3902275 C 12.211487,3.4235649 12.421226,3.6017423 12.579796,3.8017587 C 12.71903,3.958201 12.977388,4.3125349 13.169216,4.2299209 z "
       id="path2204"
       sodipodi:nodetypes="ccsscsccsscsssss" />
  </g>
</svg>
