<?xml version="1.0" encoding="UTF-8" standalone="no"?>
<!-- Created with Inkscape (http://www.inkscape.org/) -->
<svg
   xmlns:dc="http://purl.org/dc/elements/1.1/"
   xmlns:cc="http://web.resource.org/cc/"
   xmlns:rdf="http://www.w3.org/1999/02/22-rdf-syntax-ns#"
   xmlns:svg="http://www.w3.org/2000/svg"
   xmlns="http://www.w3.org/2000/svg"
   xmlns:xlink="http://www.w3.org/1999/xlink"
   xmlns:sodipodi="http://sodipodi.sourceforge.net/DTD/sodipodi-0.dtd"
   xmlns:inkscape="http://www.inkscape.org/namespaces/inkscape"
   width="100pt"
   height="100pt"
   id="svg2"
   sodipodi:version="0.32"
   inkscape:version="0.45.1"
   sodipodi:docbase="/home/steve/Applications/bazaar/Phamerator.local/map-export/phamerator/pixmaps"
   sodipodi:docname="phageManager_logo.svg"
   version="1.0"
   inkscape:export-filename="/home/steve/Applications/bazaar/Phamerator.local/map-export/phamerator/pixmaps/phamerator.png"
   inkscape:export-xdpi="34.560001"
   inkscape:export-ydpi="34.560001"
   inkscape:output_extension="org.inkscape.output.svg.inkscape">
  <defs
     id="defs4">
    <linearGradient
       id="linearGradient2246">
      <stop
         style="stop-color:#0000ff;stop-opacity:1;"
         offset="0"
         id="stop2248" />
      <stop
         style="stop-color:#ff9b00;stop-opacity:0.48453608;"
         offset="1"
         id="stop2250" />
    </linearGradient>
    <radialGradient
       inkscape:collect="always"
       xlink:href="#linearGradient2246"
       id="radialGradient2268"
       cx="30.198618"
       cy="32.229767"
       fx="30.198618"
       fy="32.229767"
       r="25.641806"
       gradientTransform="matrix(1,0,0,0.965117,0,1.124285)"
       gradientUnits="userSpaceOnUse" />
    <radialGradient
       inkscape:collect="always"
       xlink:href="#linearGradient2246"
       id="radialGradient2270"
       cx="30.198618"
       cy="32.229767"
       fx="30.198618"
       fy="32.229767"
       r="25.641806"
       gradientTransform="matrix(1,0,0,0.965117,0,1.124285)"
       gradientUnits="userSpaceOnUse" />
    <radialGradient
       inkscape:collect="always"
       xlink:href="#linearGradient2246"
       id="radialGradient2272"
       cx="30.198618"
       cy="32.229767"
       fx="30.198618"
       fy="32.229767"
       r="25.641806"
       gradientTransform="matrix(1,0,0,0.965117,0,1.124285)"
       gradientUnits="userSpaceOnUse" />
    <radialGradient
       inkscape:collect="always"
       xlink:href="#linearGradient2246"
       id="radialGradient2274"
       cx="30.198618"
       cy="32.229767"
       fx="30.198618"
       fy="32.229767"
       r="25.641806"
       gradientTransform="matrix(1,0,0,0.965117,0,1.124285)"
       gradientUnits="userSpaceOnUse" />
  </defs>
  <sodipodi:namedview
     id="base"
     pagecolor="#ffffff"
     bordercolor="#666666"
     borderopacity="1.0"
     inkscape:pageopacity="0.0"
     inkscape:pageshadow="2"
     inkscape:zoom="4.2935524"
     inkscape:cx="62.5"
     inkscape:cy="62.5"
     inkscape:document-units="px"
     inkscape:current-layer="layer1"
     inkscape:window-width="1270"
     inkscape:window-height="945"
     inkscape:window-x="0"
     inkscape:window-y="25" />
  <metadata
     id="metadata7">
    <rdf:RDF>
      <cc:Work
         rdf:about="">
        <dc:format>image/svg+xml</dc:format>
        <dc:type
           rdf:resource="http://purl.org/dc/dcmitype/StillImage" />
      </cc:Work>
    </rdf:RDF>
  </metadata>
  <g
     inkscape:label="Layer 1"
     inkscape:groupmode="layer"
     id="layer1">
    <g
       id="g1323"
       transform="matrix(1.246483,0,0,1.246483,8.947075,-7.201162)"
       style="fill-opacity:1.0;fill:url(#radialGradient2274)">
      <path
         sodipodi:nodetypes="cccccccccccccccccccccccccsccc"
         id="path1309"
         d="M 48.346052,7.8534057 L 39.070069,10.515765 L 38.842944,11.449008 L 47.08179,9.0842388 L 54.246535,15.083317 L 52.362479,22.809792 L 53.39959,22.512202 L 55.510797,13.852506 L 48.346052,7.8534057 z M 52.362479,22.809792 L 44.123607,25.172794 L 44.030292,25.093567 L 36.958859,19.17546 L 38.842944,11.449008 L 37.805808,11.746574 L 35.692831,20.406269 L 42.223177,25.91796 C 41.013402,28.447245 39.042752,31.733697 38.480215,35.086171 C 37.924107,38.495488 38.858823,41.819148 39.732155,45.085843 C 40.399028,48.057451 41.698362,50.851753 42.255402,53.847661 C 42.367517,54.681257 42.336347,55.52678 42.325818,56.365627 L 44.863152,55.074931 C 44.864281,54.223126 44.918203,53.360322 44.738152,52.521765 C 44.01348,49.57306 42.872893,46.736003 42.098667,43.798682 C 41.195563,40.563305 40.424406,37.255574 40.941833,33.881796 C 41.306378,31.53158 42.064773,29.252665 43.151658,27.136105 C 43.289912,26.866837 43.62044,26.467269 43.942255,26.093692 L 52.135328,23.743011 L 52.362479,22.809792 z "
         style="opacity:1;color:#000000;fill:url(#radialGradient2274);fill-opacity:1.0;fill-rule:nonzero;stroke:#000000;stroke-width:0.65924901;stroke-linecap:butt;stroke-linejoin:miter;marker:none;marker-start:none;marker-mid:none;marker-end:none;stroke-miterlimit:4;stroke-dasharray:none;stroke-dashoffset:0;stroke-opacity:1;visibility:visible;display:inline;overflow:visible" />
      <path
         sodipodi:nodetypes="cccccccccccccccccccccccccsccc"
         id="path1313"
         d="M 40.131012,7.8120604 L 31.431687,11.989826 L 31.36401,12.947923 L 39.090661,9.2371836 L 47.158647,13.952067 L 46.594746,21.884917 L 47.567397,21.417894 L 48.199001,12.526965 L 40.131012,7.8120604 z M 46.594746,21.884917 L 38.867775,25.593918 L 38.762514,25.531433 L 30.800081,20.880754 L 31.36401,12.947923 L 30.391332,13.414926 L 29.757983,22.306149 L 37.118924,26.646736 C 36.349677,29.342863 34.95706,32.912855 34.963733,36.312191 C 34.986263,39.766491 36.464233,42.88675 37.872148,45.961124 C 39.027115,48.779141 40.775931,51.31647 41.826684,54.176837 C 42.076777,54.979895 42.187604,55.818701 42.317663,56.647472 L 44.603096,54.950194 C 44.461601,54.11022 44.370312,53.250567 44.05241,52.45399 C 42.844294,49.668228 41.244826,47.062171 39.989762,44.29593 C 38.557738,41.257416 37.243685,38.125478 37.188971,34.712691 C 37.154897,32.334615 37.521052,29.960894 38.238243,27.692242 C 38.329464,27.403629 38.588432,26.954363 38.843159,26.53218 L 46.527041,22.842994 L 46.594746,21.884917 z "
         style="opacity:1;color:#000000;fill:url(#radialGradient2274);fill-opacity:1.0;fill-rule:nonzero;stroke:#000000;stroke-width:0.65924901;stroke-linecap:butt;stroke-linejoin:miter;marker:none;marker-start:none;marker-mid:none;marker-end:none;stroke-miterlimit:4;stroke-dasharray:none;stroke-dashoffset:0;stroke-opacity:1;visibility:visible;display:inline;overflow:visible" />
      <path
         sodipodi:nodetypes="cccccccccccccccccccccccccsccc"
         id="path1315"
         d="M 30.936554,9.008457 L 23.163336,14.727642 L 23.274586,15.681661 L 30.178661,10.601851 L 38.981314,13.738064 L 39.898949,21.637814 L 40.768069,20.998447 L 39.739215,12.144691 L 30.936554,9.008457 z M 39.898949,21.637814 L 32.994237,26.715975 L 32.87921,26.674103 L 24.19219,23.581397 L 23.274586,15.681661 L 22.405434,16.321014 L 23.432631,25.175383 L 31.471072,28.074972 C 31.215379,30.867007 30.509263,34.633388 31.146484,37.972472 C 31.809483,41.362623 33.840682,44.154512 35.794531,46.914309 C 37.452261,49.46913 39.641457,51.637955 41.204638,54.253723 C 41.599378,54.996443 41.863901,55.800125 42.14546,56.590379 L 44.076329,54.498558 C 43.781453,53.699419 43.532261,52.871626 43.072093,52.147857 C 41.368121,49.634598 39.31293,47.370523 37.566446,44.885152 C 35.59556,42.165065 33.723266,39.33129 33.036342,35.987901 C 32.561667,33.657432 32.481079,31.256989 32.764926,28.894665 C 32.801019,28.594138 32.97214,28.104626 33.14412,27.642515 L 40.010167,22.591818 L 39.898949,21.637814 z "
         style="opacity:1;color:#000000;fill:url(#radialGradient2274);fill-opacity:1.0;fill-rule:nonzero;stroke:#000000;stroke-width:0.65924901;stroke-linecap:butt;stroke-linejoin:miter;marker:none;marker-start:none;marker-mid:none;marker-end:none;stroke-miterlimit:4;stroke-dasharray:none;stroke-dashoffset:0;stroke-opacity:1;visibility:visible;display:inline;overflow:visible" />
      <path
         sodipodi:nodetypes="cccccccccccccccccccccccccsccc"
         id="path1317"
         d="M 23.380667,11.017704 L 16.632749,17.916803 L 16.89656,18.840347 L 22.889961,12.712552 L 32.083462,14.386488 L 34.264427,22.034461 L 35.018924,21.263167 L 32.574181,12.691659 L 23.380667,11.017704 z M 34.264427,22.034461 L 28.270131,28.160731 L 28.149853,28.137979 L 19.077492,26.488311 L 16.89656,18.840347 L 16.14203,19.611631 L 18.585236,28.184013 L 26.986349,29.747807 C 27.184768,32.544495 27.095975,36.375467 28.263912,39.567873 C 29.465534,42.806515 31.920822,45.233853 34.294592,47.64201 C 36.343035,49.895678 38.853659,51.682629 40.818634,54.011712 C 41.328102,54.680959 41.718906,55.431395 42.124354,56.165828 L 43.69218,53.789717 C 43.272156,53.048667 42.892591,52.271965 42.321611,51.631985 C 40.23424,49.426788 37.84049,47.524217 35.715667,45.353406 C 33.331494,42.987189 31.026265,40.492859 29.808582,37.30423 C 28.963893,35.080965 28.496824,32.725022 28.395564,30.347861 C 28.382666,30.04545 28.472514,29.534734 28.567632,29.050918 L 34.528204,22.957996 L 34.264427,22.034461 z "
         style="opacity:1;color:#000000;fill:url(#radialGradient2274);fill-opacity:1.0;fill-rule:nonzero;stroke:#000000;stroke-width:0.65924901;stroke-linecap:butt;stroke-linejoin:miter;marker:none;marker-start:none;marker-mid:none;marker-end:none;stroke-miterlimit:4;stroke-dasharray:none;stroke-dashoffset:0;stroke-opacity:1;visibility:visible;display:inline;overflow:visible" />
      <path
         sodipodi:nodetypes="cccccccccccccccccccccccccsccc"
         id="path1319"
         d="M 16.218739,15.042049 L 10.721109,22.973508 L 11.135816,23.839849 L 16.01871,16.795129 L 25.362701,16.906264 L 28.793306,24.081154 L 29.408024,23.194428 L 25.562745,15.153199 L 16.218739,15.042049 z M 28.793306,24.081154 L 23.909275,31.12452 L 23.786886,31.122226 L 14.566387,31.014736 L 11.135816,23.839849 L 10.521064,24.726571 L 14.364974,32.768918 L 22.909321,32.904126 C 23.573161,35.628122 24.127002,39.419887 25.812927,42.371699 C 27.539802,45.363454 30.36682,47.345468 33.11026,49.322219 C 35.507101,51.201129 38.281457,52.542522 40.608636,54.509765 C 41.222959,55.084273 41.733882,55.758684 42.256567,56.414872 L 43.404457,53.809813 C 42.866294,53.149542 42.362052,52.44735 41.691984,51.911989 C 39.264882,50.087393 36.586387,48.612434 34.128119,46.828001 C 31.381446,44.89434 28.691152,42.821156 26.956816,39.881396 C 25.751831,37.83093 24.896923,35.586436 24.399108,33.25978 C 24.335762,32.963797 24.338837,32.445247 24.351613,31.952336 L 29.207978,24.947492 L 28.793306,24.081154 z "
         style="opacity:1;color:#000000;fill:url(#radialGradient2274);fill-opacity:1.0;fill-rule:nonzero;stroke:#000000;stroke-width:0.65924901;stroke-linecap:butt;stroke-linejoin:miter;marker:none;marker-start:none;marker-mid:none;marker-end:none;stroke-miterlimit:4;stroke-dasharray:none;stroke-dashoffset:0;stroke-opacity:1;visibility:visible;display:inline;overflow:visible" />
      <path
         sodipodi:nodetypes="cccccccccccccccccccccccccsccc"
         id="path1321"
         d="M 8.8171374,20.626465 L 4.8864366,29.440181 L 5.4546732,30.214543 L 8.9458214,22.386223 L 18.148215,20.761878 L 22.850388,27.175743 L 23.289923,26.190366 L 18.019547,19.002134 L 8.8171374,20.626465 z M 22.850388,27.175743 L 19.357871,35.002945 L 19.23718,35.023397 L 10.156813,36.628412 L 5.4546732,30.214543 L 5.0151029,31.199923 L 10.284341,38.389507 L 18.705438,36.937173 C 19.863125,39.49072 21.11082,43.113907 23.315112,45.70169 C 25.567055,48.321128 28.712708,49.744245 31.775257,51.177697 C 34.479079,52.579325 37.454132,53.382713 40.10588,54.884044 C 40.816124,55.334607 41.4433,55.90253 42.078649,56.450348 L 42.723307,53.677558 C 42.071991,53.128591 41.446225,52.53213 40.68847,52.130386 C 37.964993,50.787748 35.059357,49.83533 32.312707,48.537948 C 29.254973,47.147435 26.226755,45.609361 23.977128,43.042402 C 22.412647,41.251087 21.156172,39.204166 20.235345,37.01026 C 20.118186,36.731167 20.025003,36.221048 19.94611,35.734325 L 23.418589,27.950108 L 22.850388,27.175743 z "
         style="opacity:1;color:#000000;fill:url(#radialGradient2274);fill-opacity:1.0;fill-rule:nonzero;stroke:#000000;stroke-width:0.65924901;stroke-linecap:butt;stroke-linejoin:miter;marker:none;marker-start:none;marker-mid:none;marker-end:none;stroke-miterlimit:4;stroke-dasharray:none;stroke-dashoffset:0;stroke-opacity:1;visibility:visible;display:inline;overflow:visible" />
    </g>
    <g
       id="g1331"
       transform="matrix(-1.246483,0,0,-1.246483,117.4261,131.591)"
       style="fill-opacity:1.0;fill:url(#radialGradient2272)">
      <path
         sodipodi:nodetypes="cccccccccccccccccccccccccsccc"
         id="path1333"
         d="M 48.346052,7.8534057 L 39.070069,10.515765 L 38.842944,11.449008 L 47.08179,9.0842388 L 54.246535,15.083317 L 52.362479,22.809792 L 53.39959,22.512202 L 55.510797,13.852506 L 48.346052,7.8534057 z M 52.362479,22.809792 L 44.123607,25.172794 L 44.030292,25.093567 L 36.958859,19.17546 L 38.842944,11.449008 L 37.805808,11.746574 L 35.692831,20.406269 L 42.223177,25.91796 C 41.013402,28.447245 39.042752,31.733697 38.480215,35.086171 C 37.924107,38.495488 38.858823,41.819148 39.732155,45.085843 C 40.399028,48.057451 41.698362,50.851753 42.255402,53.847661 C 42.367517,54.681257 42.336347,55.52678 42.325818,56.365627 L 44.863152,55.074931 C 44.864281,54.223126 44.918203,53.360322 44.738152,52.521765 C 44.01348,49.57306 42.872893,46.736003 42.098667,43.798682 C 41.195563,40.563305 40.424406,37.255574 40.941833,33.881796 C 41.306378,31.53158 42.064773,29.252665 43.151658,27.136105 C 43.289912,26.866837 43.62044,26.467269 43.942255,26.093692 L 52.135328,23.743011 L 52.362479,22.809792 z "
         style="opacity:1;color:#000000;fill:url(#radialGradient2272);fill-opacity:1.0;fill-rule:nonzero;stroke:#000000;stroke-width:0.65924901;stroke-linecap:butt;stroke-linejoin:miter;marker:none;marker-start:none;marker-mid:none;marker-end:none;stroke-miterlimit:4;stroke-dasharray:none;stroke-dashoffset:0;stroke-opacity:1;visibility:visible;display:inline;overflow:visible" />
      <path
         sodipodi:nodetypes="cccccccccccccccccccccccccsccc"
         id="path1335"
         d="M 40.131012,7.8120604 L 31.431687,11.989826 L 31.36401,12.947923 L 39.090661,9.2371836 L 47.158647,13.952067 L 46.594746,21.884917 L 47.567397,21.417894 L 48.199001,12.526965 L 40.131012,7.8120604 z M 46.594746,21.884917 L 38.867775,25.593918 L 38.762514,25.531433 L 30.800081,20.880754 L 31.36401,12.947923 L 30.391332,13.414926 L 29.757983,22.306149 L 37.118924,26.646736 C 36.349677,29.342863 34.95706,32.912855 34.963733,36.312191 C 34.986263,39.766491 36.464233,42.88675 37.872148,45.961124 C 39.027115,48.779141 40.775931,51.31647 41.826684,54.176837 C 42.076777,54.979895 42.187604,55.818701 42.317663,56.647472 L 44.603096,54.950194 C 44.461601,54.11022 44.370312,53.250567 44.05241,52.45399 C 42.844294,49.668228 41.244826,47.062171 39.989762,44.29593 C 38.557738,41.257416 37.243685,38.125478 37.188971,34.712691 C 37.154897,32.334615 37.521052,29.960894 38.238243,27.692242 C 38.329464,27.403629 38.588432,26.954363 38.843159,26.53218 L 46.527041,22.842994 L 46.594746,21.884917 z "
         style="opacity:1;color:#000000;fill:url(#radialGradient2272);fill-opacity:1.0;fill-rule:nonzero;stroke:#000000;stroke-width:0.65924901;stroke-linecap:butt;stroke-linejoin:miter;marker:none;marker-start:none;marker-mid:none;marker-end:none;stroke-miterlimit:4;stroke-dasharray:none;stroke-dashoffset:0;stroke-opacity:1;visibility:visible;display:inline;overflow:visible" />
      <path
         sodipodi:nodetypes="cccccccccccccccccccccccccsccc"
         id="path1337"
         d="M 30.936554,9.008457 L 23.163336,14.727642 L 23.274586,15.681661 L 30.178661,10.601851 L 38.981314,13.738064 L 39.898949,21.637814 L 40.768069,20.998447 L 39.739215,12.144691 L 30.936554,9.008457 z M 39.898949,21.637814 L 32.994237,26.715975 L 32.87921,26.674103 L 24.19219,23.581397 L 23.274586,15.681661 L 22.405434,16.321014 L 23.432631,25.175383 L 31.471072,28.074972 C 31.215379,30.867007 30.509263,34.633388 31.146484,37.972472 C 31.809483,41.362623 33.840682,44.154512 35.794531,46.914309 C 37.452261,49.46913 39.641457,51.637955 41.204638,54.253723 C 41.599378,54.996443 41.863901,55.800125 42.14546,56.590379 L 44.076329,54.498558 C 43.781453,53.699419 43.532261,52.871626 43.072093,52.147857 C 41.368121,49.634598 39.31293,47.370523 37.566446,44.885152 C 35.59556,42.165065 33.723266,39.33129 33.036342,35.987901 C 32.561667,33.657432 32.481079,31.256989 32.764926,28.894665 C 32.801019,28.594138 32.97214,28.104626 33.14412,27.642515 L 40.010167,22.591818 L 39.898949,21.637814 z "
         style="opacity:1;color:#000000;fill:url(#radialGradient2272);fill-opacity:1.0;fill-rule:nonzero;stroke:#000000;stroke-width:0.65924901;stroke-linecap:butt;stroke-linejoin:miter;marker:none;marker-start:none;marker-mid:none;marker-end:none;stroke-miterlimit:4;stroke-dasharray:none;stroke-dashoffset:0;stroke-opacity:1;visibility:visible;display:inline;overflow:visible" />
      <path
         sodipodi:nodetypes="cccccccccccccccccccccccccsccc"
         id="path1339"
         d="M 23.380667,11.017704 L 16.632749,17.916803 L 16.89656,18.840347 L 22.889961,12.712552 L 32.083462,14.386488 L 34.264427,22.034461 L 35.018924,21.263167 L 32.574181,12.691659 L 23.380667,11.017704 z M 34.264427,22.034461 L 28.270131,28.160731 L 28.149853,28.137979 L 19.077492,26.488311 L 16.89656,18.840347 L 16.14203,19.611631 L 18.585236,28.184013 L 26.986349,29.747807 C 27.184768,32.544495 27.095975,36.375467 28.263912,39.567873 C 29.465534,42.806515 31.920822,45.233853 34.294592,47.64201 C 36.343035,49.895678 38.853659,51.682629 40.818634,54.011712 C 41.328102,54.680959 41.718906,55.431395 42.124354,56.165828 L 43.69218,53.789717 C 43.272156,53.048667 42.892591,52.271965 42.321611,51.631985 C 40.23424,49.426788 37.84049,47.524217 35.715667,45.353406 C 33.331494,42.987189 31.026265,40.492859 29.808582,37.30423 C 28.963893,35.080965 28.496824,32.725022 28.395564,30.347861 C 28.382666,30.04545 28.472514,29.534734 28.567632,29.050918 L 34.528204,22.957996 L 34.264427,22.034461 z "
         style="opacity:1;color:#000000;fill:url(#radialGradient2272);fill-opacity:1.0;fill-rule:nonzero;stroke:#000000;stroke-width:0.65924901;stroke-linecap:butt;stroke-linejoin:miter;marker:none;marker-start:none;marker-mid:none;marker-end:none;stroke-miterlimit:4;stroke-dasharray:none;stroke-dashoffset:0;stroke-opacity:1;visibility:visible;display:inline;overflow:visible" />
      <path
         sodipodi:nodetypes="cccccccccccccccccccccccccsccc"
         id="path1341"
         d="M 16.218739,15.042049 L 10.721109,22.973508 L 11.135816,23.839849 L 16.01871,16.795129 L 25.362701,16.906264 L 28.793306,24.081154 L 29.408024,23.194428 L 25.562745,15.153199 L 16.218739,15.042049 z M 28.793306,24.081154 L 23.909275,31.12452 L 23.786886,31.122226 L 14.566387,31.014736 L 11.135816,23.839849 L 10.521064,24.726571 L 14.364974,32.768918 L 22.909321,32.904126 C 23.573161,35.628122 24.127002,39.419887 25.812927,42.371699 C 27.539802,45.363454 30.36682,47.345468 33.11026,49.322219 C 35.507101,51.201129 38.281457,52.542522 40.608636,54.509765 C 41.222959,55.084273 41.733882,55.758684 42.256567,56.414872 L 43.404457,53.809813 C 42.866294,53.149542 42.362052,52.44735 41.691984,51.911989 C 39.264882,50.087393 36.586387,48.612434 34.128119,46.828001 C 31.381446,44.89434 28.691152,42.821156 26.956816,39.881396 C 25.751831,37.83093 24.896923,35.586436 24.399108,33.25978 C 24.335762,32.963797 24.338837,32.445247 24.351613,31.952336 L 29.207978,24.947492 L 28.793306,24.081154 z "
         style="opacity:1;color:#000000;fill:url(#radialGradient2272);fill-opacity:1.0;fill-rule:nonzero;stroke:#000000;stroke-width:0.65924901;stroke-linecap:butt;stroke-linejoin:miter;marker:none;marker-start:none;marker-mid:none;marker-end:none;stroke-miterlimit:4;stroke-dasharray:none;stroke-dashoffset:0;stroke-opacity:1;visibility:visible;display:inline;overflow:visible" />
      <path
         sodipodi:nodetypes="cccccccccccccccccccccccccsccc"
         id="path1343"
         d="M 8.8171374,20.626465 L 4.8864366,29.440181 L 5.4546732,30.214543 L 8.9458214,22.386223 L 18.148215,20.761878 L 22.850388,27.175743 L 23.289923,26.190366 L 18.019547,19.002134 L 8.8171374,20.626465 z M 22.850388,27.175743 L 19.357871,35.002945 L 19.23718,35.023397 L 10.156813,36.628412 L 5.4546732,30.214543 L 5.0151029,31.199923 L 10.284341,38.389507 L 18.705438,36.937173 C 19.863125,39.49072 21.11082,43.113907 23.315112,45.70169 C 25.567055,48.321128 28.712708,49.744245 31.775257,51.177697 C 34.479079,52.579325 37.454132,53.382713 40.10588,54.884044 C 40.816124,55.334607 41.4433,55.90253 42.078649,56.450348 L 42.723307,53.677558 C 42.071991,53.128591 41.446225,52.53213 40.68847,52.130386 C 37.964993,50.787748 35.059357,49.83533 32.312707,48.537948 C 29.254973,47.147435 26.226755,45.609361 23.977128,43.042402 C 22.412647,41.251087 21.156172,39.204166 20.235345,37.01026 C 20.118186,36.731167 20.025003,36.221048 19.94611,35.734325 L 23.418589,27.950108 L 22.850388,27.175743 z "
         style="opacity:1;color:#000000;fill:url(#radialGradient2272);fill-opacity:1.0;fill-rule:nonzero;stroke:#000000;stroke-width:0.65924901;stroke-linecap:butt;stroke-linejoin:miter;marker:none;marker-start:none;marker-mid:none;marker-end:none;stroke-miterlimit:4;stroke-dasharray:none;stroke-dashoffset:0;stroke-opacity:1;visibility:visible;display:inline;overflow:visible" />
    </g>
    <g
       id="g1345"
       transform="matrix(-1.103454e-7,1.246483,-1.246483,-1.103454e-7,133.2127,6.984899)"
       style="fill-opacity:1.0;fill:url(#radialGradient2270)">
      <path
         sodipodi:nodetypes="cccccccccccccccccccccccccsccc"
         id="path1347"
         d="M 48.346052,7.8534057 L 39.070069,10.515765 L 38.842944,11.449008 L 47.08179,9.0842388 L 54.246535,15.083317 L 52.362479,22.809792 L 53.39959,22.512202 L 55.510797,13.852506 L 48.346052,7.8534057 z M 52.362479,22.809792 L 44.123607,25.172794 L 44.030292,25.093567 L 36.958859,19.17546 L 38.842944,11.449008 L 37.805808,11.746574 L 35.692831,20.406269 L 42.223177,25.91796 C 41.013402,28.447245 39.042752,31.733697 38.480215,35.086171 C 37.924107,38.495488 38.858823,41.819148 39.732155,45.085843 C 40.399028,48.057451 41.698362,50.851753 42.255402,53.847661 C 42.367517,54.681257 42.336347,55.52678 42.325818,56.365627 L 44.863152,55.074931 C 44.864281,54.223126 44.918203,53.360322 44.738152,52.521765 C 44.01348,49.57306 42.872893,46.736003 42.098667,43.798682 C 41.195563,40.563305 40.424406,37.255574 40.941833,33.881796 C 41.306378,31.53158 42.064773,29.252665 43.151658,27.136105 C 43.289912,26.866837 43.62044,26.467269 43.942255,26.093692 L 52.135328,23.743011 L 52.362479,22.809792 z "
         style="opacity:1;color:#000000;fill:url(#radialGradient2270);fill-opacity:1.0;fill-rule:nonzero;stroke:#000000;stroke-width:0.65924901;stroke-linecap:butt;stroke-linejoin:miter;marker:none;marker-start:none;marker-mid:none;marker-end:none;stroke-miterlimit:4;stroke-dasharray:none;stroke-dashoffset:0;stroke-opacity:1;visibility:visible;display:inline;overflow:visible" />
      <path
         sodipodi:nodetypes="cccccccccccccccccccccccccsccc"
         id="path1349"
         d="M 40.131012,7.8120604 L 31.431687,11.989826 L 31.36401,12.947923 L 39.090661,9.2371836 L 47.158647,13.952067 L 46.594746,21.884917 L 47.567397,21.417894 L 48.199001,12.526965 L 40.131012,7.8120604 z M 46.594746,21.884917 L 38.867775,25.593918 L 38.762514,25.531433 L 30.800081,20.880754 L 31.36401,12.947923 L 30.391332,13.414926 L 29.757983,22.306149 L 37.118924,26.646736 C 36.349677,29.342863 34.95706,32.912855 34.963733,36.312191 C 34.986263,39.766491 36.464233,42.88675 37.872148,45.961124 C 39.027115,48.779141 40.775931,51.31647 41.826684,54.176837 C 42.076777,54.979895 42.187604,55.818701 42.317663,56.647472 L 44.603096,54.950194 C 44.461601,54.11022 44.370312,53.250567 44.05241,52.45399 C 42.844294,49.668228 41.244826,47.062171 39.989762,44.29593 C 38.557738,41.257416 37.243685,38.125478 37.188971,34.712691 C 37.154897,32.334615 37.521052,29.960894 38.238243,27.692242 C 38.329464,27.403629 38.588432,26.954363 38.843159,26.53218 L 46.527041,22.842994 L 46.594746,21.884917 z "
         style="opacity:1;color:#000000;fill:url(#radialGradient2270);fill-opacity:1.0;fill-rule:nonzero;stroke:#000000;stroke-width:0.65924901;stroke-linecap:butt;stroke-linejoin:miter;marker:none;marker-start:none;marker-mid:none;marker-end:none;stroke-miterlimit:4;stroke-dasharray:none;stroke-dashoffset:0;stroke-opacity:1;visibility:visible;display:inline;overflow:visible" />
      <path
         sodipodi:nodetypes="cccccccccccccccccccccccccsccc"
         id="path1351"
         d="M 30.936554,9.008457 L 23.163336,14.727642 L 23.274586,15.681661 L 30.178661,10.601851 L 38.981314,13.738064 L 39.898949,21.637814 L 40.768069,20.998447 L 39.739215,12.144691 L 30.936554,9.008457 z M 39.898949,21.637814 L 32.994237,26.715975 L 32.87921,26.674103 L 24.19219,23.581397 L 23.274586,15.681661 L 22.405434,16.321014 L 23.432631,25.175383 L 31.471072,28.074972 C 31.215379,30.867007 30.509263,34.633388 31.146484,37.972472 C 31.809483,41.362623 33.840682,44.154512 35.794531,46.914309 C 37.452261,49.46913 39.641457,51.637955 41.204638,54.253723 C 41.599378,54.996443 41.863901,55.800125 42.14546,56.590379 L 44.076329,54.498558 C 43.781453,53.699419 43.532261,52.871626 43.072093,52.147857 C 41.368121,49.634598 39.31293,47.370523 37.566446,44.885152 C 35.59556,42.165065 33.723266,39.33129 33.036342,35.987901 C 32.561667,33.657432 32.481079,31.256989 32.764926,28.894665 C 32.801019,28.594138 32.97214,28.104626 33.14412,27.642515 L 40.010167,22.591818 L 39.898949,21.637814 z "
         style="opacity:1;color:#000000;fill:url(#radialGradient2270);fill-opacity:1.0;fill-rule:nonzero;stroke:#000000;stroke-width:0.65924901;stroke-linecap:butt;stroke-linejoin:miter;marker:none;marker-start:none;marker-mid:none;marker-end:none;stroke-miterlimit:4;stroke-dasharray:none;stroke-dashoffset:0;stroke-opacity:1;visibility:visible;display:inline;overflow:visible" />
      <path
         sodipodi:nodetypes="cccccccccccccccccccccccccsccc"
         id="path1353"
         d="M 23.380667,11.017704 L 16.632749,17.916803 L 16.89656,18.840347 L 22.889961,12.712552 L 32.083462,14.386488 L 34.264427,22.034461 L 35.018924,21.263167 L 32.574181,12.691659 L 23.380667,11.017704 z M 34.264427,22.034461 L 28.270131,28.160731 L 28.149853,28.137979 L 19.077492,26.488311 L 16.89656,18.840347 L 16.14203,19.611631 L 18.585236,28.184013 L 26.986349,29.747807 C 27.184768,32.544495 27.095975,36.375467 28.263912,39.567873 C 29.465534,42.806515 31.920822,45.233853 34.294592,47.64201 C 36.343035,49.895678 38.853659,51.682629 40.818634,54.011712 C 41.328102,54.680959 41.718906,55.431395 42.124354,56.165828 L 43.69218,53.789717 C 43.272156,53.048667 42.892591,52.271965 42.321611,51.631985 C 40.23424,49.426788 37.84049,47.524217 35.715667,45.353406 C 33.331494,42.987189 31.026265,40.492859 29.808582,37.30423 C 28.963893,35.080965 28.496824,32.725022 28.395564,30.347861 C 28.382666,30.04545 28.472514,29.534734 28.567632,29.050918 L 34.528204,22.957996 L 34.264427,22.034461 z "
         style="opacity:1;color:#000000;fill:url(#radialGradient2270);fill-opacity:1.0;fill-rule:nonzero;stroke:#000000;stroke-width:0.65924901;stroke-linecap:butt;stroke-linejoin:miter;marker:none;marker-start:none;marker-mid:none;marker-end:none;stroke-miterlimit:4;stroke-dasharray:none;stroke-dashoffset:0;stroke-opacity:1;visibility:visible;display:inline;overflow:visible" />
      <path
         sodipodi:nodetypes="cccccccccccccccccccccccccsccc"
         id="path1355"
         d="M 16.218739,15.042049 L 10.721109,22.973508 L 11.135816,23.839849 L 16.01871,16.795129 L 25.362701,16.906264 L 28.793306,24.081154 L 29.408024,23.194428 L 25.562745,15.153199 L 16.218739,15.042049 z M 28.793306,24.081154 L 23.909275,31.12452 L 23.786886,31.122226 L 14.566387,31.014736 L 11.135816,23.839849 L 10.521064,24.726571 L 14.364974,32.768918 L 22.909321,32.904126 C 23.573161,35.628122 24.127002,39.419887 25.812927,42.371699 C 27.539802,45.363454 30.36682,47.345468 33.11026,49.322219 C 35.507101,51.201129 38.281457,52.542522 40.608636,54.509765 C 41.222959,55.084273 41.733882,55.758684 42.256567,56.414872 L 43.404457,53.809813 C 42.866294,53.149542 42.362052,52.44735 41.691984,51.911989 C 39.264882,50.087393 36.586387,48.612434 34.128119,46.828001 C 31.381446,44.89434 28.691152,42.821156 26.956816,39.881396 C 25.751831,37.83093 24.896923,35.586436 24.399108,33.25978 C 24.335762,32.963797 24.338837,32.445247 24.351613,31.952336 L 29.207978,24.947492 L 28.793306,24.081154 z "
         style="opacity:1;color:#000000;fill:url(#radialGradient2270);fill-opacity:1.0;fill-rule:nonzero;stroke:#000000;stroke-width:0.65924901;stroke-linecap:butt;stroke-linejoin:miter;marker:none;marker-start:none;marker-mid:none;marker-end:none;stroke-miterlimit:4;stroke-dasharray:none;stroke-dashoffset:0;stroke-opacity:1;visibility:visible;display:inline;overflow:visible" />
      <path
         sodipodi:nodetypes="cccccccccccccccccccccccccsccc"
         id="path1357"
         d="M 8.8171374,20.626465 L 4.8864366,29.440181 L 5.4546732,30.214543 L 8.9458214,22.386223 L 18.148215,20.761878 L 22.850388,27.175743 L 23.289923,26.190366 L 18.019547,19.002134 L 8.8171374,20.626465 z M 22.850388,27.175743 L 19.357871,35.002945 L 19.23718,35.023397 L 10.156813,36.628412 L 5.4546732,30.214543 L 5.0151029,31.199923 L 10.284341,38.389507 L 18.705438,36.937173 C 19.863125,39.49072 21.11082,43.113907 23.315112,45.70169 C 25.567055,48.321128 28.712708,49.744245 31.775257,51.177697 C 34.479079,52.579325 37.454132,53.382713 40.10588,54.884044 C 40.816124,55.334607 41.4433,55.90253 42.078649,56.450348 L 42.723307,53.677558 C 42.071991,53.128591 41.446225,52.53213 40.68847,52.130386 C 37.964993,50.787748 35.059357,49.83533 32.312707,48.537948 C 29.254973,47.147435 26.226755,45.609361 23.977128,43.042402 C 22.412647,41.251087 21.156172,39.204166 20.235345,37.01026 C 20.118186,36.731167 20.025003,36.221048 19.94611,35.734325 L 23.418589,27.950108 L 22.850388,27.175743 z "
         style="opacity:1;color:#000000;fill:url(#radialGradient2270);fill-opacity:1.0;fill-rule:nonzero;stroke:#000000;stroke-width:0.65924901;stroke-linecap:butt;stroke-linejoin:miter;marker:none;marker-start:none;marker-mid:none;marker-end:none;stroke-miterlimit:4;stroke-dasharray:none;stroke-dashoffset:0;stroke-opacity:1;visibility:visible;display:inline;overflow:visible" />
    </g>
    <g
       id="g1359"
       transform="matrix(1.103454e-7,-1.246483,1.246483,1.103454e-7,-5.579462,115.4641)"
       style="fill-opacity:1.0;fill:url(#radialGradient2268)">
      <path
         sodipodi:nodetypes="cccccccccccccccccccccccccsccc"
         id="path1361"
         d="M 48.346052,7.8534057 L 39.070069,10.515765 L 38.842944,11.449008 L 47.08179,9.0842388 L 54.246535,15.083317 L 52.362479,22.809792 L 53.39959,22.512202 L 55.510797,13.852506 L 48.346052,7.8534057 z M 52.362479,22.809792 L 44.123607,25.172794 L 44.030292,25.093567 L 36.958859,19.17546 L 38.842944,11.449008 L 37.805808,11.746574 L 35.692831,20.406269 L 42.223177,25.91796 C 41.013402,28.447245 39.042752,31.733697 38.480215,35.086171 C 37.924107,38.495488 38.858823,41.819148 39.732155,45.085843 C 40.399028,48.057451 41.698362,50.851753 42.255402,53.847661 C 42.367517,54.681257 42.336347,55.52678 42.325818,56.365627 L 44.863152,55.074931 C 44.864281,54.223126 44.918203,53.360322 44.738152,52.521765 C 44.01348,49.57306 42.872893,46.736003 42.098667,43.798682 C 41.195563,40.563305 40.424406,37.255574 40.941833,33.881796 C 41.306378,31.53158 42.064773,29.252665 43.151658,27.136105 C 43.289912,26.866837 43.62044,26.467269 43.942255,26.093692 L 52.135328,23.743011 L 52.362479,22.809792 z "
         style="opacity:1;color:#000000;fill:url(#radialGradient2268);fill-opacity:1.0;fill-rule:nonzero;stroke:#000000;stroke-width:0.65924901;stroke-linecap:butt;stroke-linejoin:miter;marker:none;marker-start:none;marker-mid:none;marker-end:none;stroke-miterlimit:4;stroke-dasharray:none;stroke-dashoffset:0;stroke-opacity:1;visibility:visible;display:inline;overflow:visible" />
      <path
         sodipodi:nodetypes="cccccccccccccccccccccccccsccc"
         id="path1363"
         d="M 40.131012,7.8120604 L 31.431687,11.989826 L 31.36401,12.947923 L 39.090661,9.2371836 L 47.158647,13.952067 L 46.594746,21.884917 L 47.567397,21.417894 L 48.199001,12.526965 L 40.131012,7.8120604 z M 46.594746,21.884917 L 38.867775,25.593918 L 38.762514,25.531433 L 30.800081,20.880754 L 31.36401,12.947923 L 30.391332,13.414926 L 29.757983,22.306149 L 37.118924,26.646736 C 36.349677,29.342863 34.95706,32.912855 34.963733,36.312191 C 34.986263,39.766491 36.464233,42.88675 37.872148,45.961124 C 39.027115,48.779141 40.775931,51.31647 41.826684,54.176837 C 42.076777,54.979895 42.187604,55.818701 42.317663,56.647472 L 44.603096,54.950194 C 44.461601,54.11022 44.370312,53.250567 44.05241,52.45399 C 42.844294,49.668228 41.244826,47.062171 39.989762,44.29593 C 38.557738,41.257416 37.243685,38.125478 37.188971,34.712691 C 37.154897,32.334615 37.521052,29.960894 38.238243,27.692242 C 38.329464,27.403629 38.588432,26.954363 38.843159,26.53218 L 46.527041,22.842994 L 46.594746,21.884917 z "
         style="opacity:1;color:#000000;fill:url(#radialGradient2268);fill-opacity:1.0;fill-rule:nonzero;stroke:#000000;stroke-width:0.65924901;stroke-linecap:butt;stroke-linejoin:miter;marker:none;marker-start:none;marker-mid:none;marker-end:none;stroke-miterlimit:4;stroke-dasharray:none;stroke-dashoffset:0;stroke-opacity:1;visibility:visible;display:inline;overflow:visible" />
      <path
         sodipodi:nodetypes="cccccccccccccccccccccccccsccc"
         id="path1365"
         d="M 30.936554,9.008457 L 23.163336,14.727642 L 23.274586,15.681661 L 30.178661,10.601851 L 38.981314,13.738064 L 39.898949,21.637814 L 40.768069,20.998447 L 39.739215,12.144691 L 30.936554,9.008457 z M 39.898949,21.637814 L 32.994237,26.715975 L 32.87921,26.674103 L 24.19219,23.581397 L 23.274586,15.681661 L 22.405434,16.321014 L 23.432631,25.175383 L 31.471072,28.074972 C 31.215379,30.867007 30.509263,34.633388 31.146484,37.972472 C 31.809483,41.362623 33.840682,44.154512 35.794531,46.914309 C 37.452261,49.46913 39.641457,51.637955 41.204638,54.253723 C 41.599378,54.996443 41.863901,55.800125 42.14546,56.590379 L 44.076329,54.498558 C 43.781453,53.699419 43.532261,52.871626 43.072093,52.147857 C 41.368121,49.634598 39.31293,47.370523 37.566446,44.885152 C 35.59556,42.165065 33.723266,39.33129 33.036342,35.987901 C 32.561667,33.657432 32.481079,31.256989 32.764926,28.894665 C 32.801019,28.594138 32.97214,28.104626 33.14412,27.642515 L 40.010167,22.591818 L 39.898949,21.637814 z "
         style="opacity:1;color:#000000;fill:url(#radialGradient2268);fill-opacity:1.0;fill-rule:nonzero;stroke:#000000;stroke-width:0.65924901;stroke-linecap:butt;stroke-linejoin:miter;marker:none;marker-start:none;marker-mid:none;marker-end:none;stroke-miterlimit:4;stroke-dasharray:none;stroke-dashoffset:0;stroke-opacity:1;visibility:visible;display:inline;overflow:visible" />
      <path
         sodipodi:nodetypes="cccccccccccccccccccccccccsccc"
         id="path1367"
         d="M 23.380667,11.017704 L 16.632749,17.916803 L 16.89656,18.840347 L 22.889961,12.712552 L 32.083462,14.386488 L 34.264427,22.034461 L 35.018924,21.263167 L 32.574181,12.691659 L 23.380667,11.017704 z M 34.264427,22.034461 L 28.270131,28.160731 L 28.149853,28.137979 L 19.077492,26.488311 L 16.89656,18.840347 L 16.14203,19.611631 L 18.585236,28.184013 L 26.986349,29.747807 C 27.184768,32.544495 27.095975,36.375467 28.263912,39.567873 C 29.465534,42.806515 31.920822,45.233853 34.294592,47.64201 C 36.343035,49.895678 38.853659,51.682629 40.818634,54.011712 C 41.328102,54.680959 41.718906,55.431395 42.124354,56.165828 L 43.69218,53.789717 C 43.272156,53.048667 42.892591,52.271965 42.321611,51.631985 C 40.23424,49.426788 37.84049,47.524217 35.715667,45.353406 C 33.331494,42.987189 31.026265,40.492859 29.808582,37.30423 C 28.963893,35.080965 28.496824,32.725022 28.395564,30.347861 C 28.382666,30.04545 28.472514,29.534734 28.567632,29.050918 L 34.528204,22.957996 L 34.264427,22.034461 z "
         style="opacity:1;color:#000000;fill:url(#radialGradient2268);fill-opacity:1.0;fill-rule:nonzero;stroke:#000000;stroke-width:0.65924901;stroke-linecap:butt;stroke-linejoin:miter;marker:none;marker-start:none;marker-mid:none;marker-end:none;stroke-miterlimit:4;stroke-dasharray:none;stroke-dashoffset:0;stroke-opacity:1;visibility:visible;display:inline;overflow:visible" />
      <path
         sodipodi:nodetypes="cccccccccccccccccccccccccsccc"
         id="path1369"
         d="M 16.218739,15.042049 L 10.721109,22.973508 L 11.135816,23.839849 L 16.01871,16.795129 L 25.362701,16.906264 L 28.793306,24.081154 L 29.408024,23.194428 L 25.562745,15.153199 L 16.218739,15.042049 z M 28.793306,24.081154 L 23.909275,31.12452 L 23.786886,31.122226 L 14.566387,31.014736 L 11.135816,23.839849 L 10.521064,24.726571 L 14.364974,32.768918 L 22.909321,32.904126 C 23.573161,35.628122 24.127002,39.419887 25.812927,42.371699 C 27.539802,45.363454 30.36682,47.345468 33.11026,49.322219 C 35.507101,51.201129 38.281457,52.542522 40.608636,54.509765 C 41.222959,55.084273 41.733882,55.758684 42.256567,56.414872 L 43.404457,53.809813 C 42.866294,53.149542 42.362052,52.44735 41.691984,51.911989 C 39.264882,50.087393 36.586387,48.612434 34.128119,46.828001 C 31.381446,44.89434 28.691152,42.821156 26.956816,39.881396 C 25.751831,37.83093 24.896923,35.586436 24.399108,33.25978 C 24.335762,32.963797 24.338837,32.445247 24.351613,31.952336 L 29.207978,24.947492 L 28.793306,24.081154 z "
         style="opacity:1;color:#000000;fill:url(#radialGradient2268);fill-opacity:1.0;fill-rule:nonzero;stroke:#000000;stroke-width:0.65924901;stroke-linecap:butt;stroke-linejoin:miter;marker:none;marker-start:none;marker-mid:none;marker-end:none;stroke-miterlimit:4;stroke-dasharray:none;stroke-dashoffset:0;stroke-opacity:1;visibility:visible;display:inline;overflow:visible" />
      <path
         sodipodi:nodetypes="cccccccccccccccccccccccccsccc"
         id="path1371"
         d="M 8.8171374,20.626465 L 4.8864366,29.440181 L 5.4546732,30.214543 L 8.9458214,22.386223 L 18.148215,20.761878 L 22.850388,27.175743 L 23.289923,26.190366 L 18.019547,19.002134 L 8.8171374,20.626465 z M 22.850388,27.175743 L 19.357871,35.002945 L 19.23718,35.023397 L 10.156813,36.628412 L 5.4546732,30.214543 L 5.0151029,31.199923 L 10.284341,38.389507 L 18.705438,36.937173 C 19.863125,39.49072 21.11082,43.113907 23.315112,45.70169 C 25.567055,48.321128 28.712708,49.744245 31.775257,51.177697 C 34.479079,52.579325 37.454132,53.382713 40.10588,54.884044 C 40.816124,55.334607 41.4433,55.90253 42.078649,56.450348 L 42.723307,53.677558 C 42.071991,53.128591 41.446225,52.53213 40.68847,52.130386 C 37.964993,50.787748 35.059357,49.83533 32.312707,48.537948 C 29.254973,47.147435 26.226755,45.609361 23.977128,43.042402 C 22.412647,41.251087 21.156172,39.204166 20.235345,37.01026 C 20.118186,36.731167 20.025003,36.221048 19.94611,35.734325 L 23.418589,27.950108 L 22.850388,27.175743 z "
         style="opacity:1;color:#000000;fill:url(#radialGradient2268);fill-opacity:1.0;fill-rule:nonzero;stroke:#000000;stroke-width:0.65924901;stroke-linecap:butt;stroke-linejoin:miter;marker:none;marker-start:none;marker-mid:none;marker-end:none;stroke-miterlimit:4;stroke-dasharray:none;stroke-dashoffset:0;stroke-opacity:1;visibility:visible;display:inline;overflow:visible" />
    </g>
  </g>
</svg>
